HIERARCHY
ROOT Hips
{
	OFFSET 0.00000 0.00000 0.00000
	CHANNELS 6 Xposition Yposition Zposition Zrotation Yrotation Xrotation 
	JOINT LHipJoint
	{
		OFFSET 0 0 0
		CHANNELS 3 Zrotation Yrotation Xrotation
		JOINT LeftHip
		{
			OFFSET 1.49846 -1.74315 1.08250
			CHANNELS 3 Zrotation Yrotation Xrotation
			JOINT LeftKnee
			{
				OFFSET 2.40966 -6.62050 0.00000
				CHANNELS 3 Zrotation Yrotation Xrotation
				JOINT LeftAnkle
				{
					OFFSET 2.68066 -7.36505 0.00000
					CHANNELS 3 Zrotation Yrotation Xrotation
					JOINT LeftToe
					{
						OFFSET 0.14291 -0.39265 2.35870
						CHANNELS 3 Zrotation Yrotation Xrotation
						End Site
						{
							OFFSET 0.00000 -0.00000 1.20470
						}
					}
				}
			}
		}
	}
	JOINT RHipJoint
	{
		OFFSET 0 0 0
		CHANNELS 3 Zrotation Yrotation Xrotation
		JOINT RightHip
		{
			OFFSET -1.46318 -1.74316 1.08250
			CHANNELS 3 Zrotation Yrotation Xrotation
			JOINT RightKnee
			{
				OFFSET -2.39759 -6.58734 0.00000
				CHANNELS 3 Zrotation Yrotation Xrotation
				JOINT RightAnkle
				{
					OFFSET -2.63570 -7.24154 0.00000
					CHANNELS 3 Zrotation Yrotation Xrotation
					JOINT RightToe
					{
						OFFSET -0.17578 -0.48294 2.47180
						CHANNELS 3 Zrotation Yrotation Xrotation
						End Site
						{
							OFFSET -0.00000 -0.00000 1.26600
						}
					}
				}
			}
		}
	}
	JOINT lowerback
	{
		OFFSET 0 0 0
		CHANNELS 3 Zrotation Yrotation Xrotation
		JOINT Chest
		{
			OFFSET 0.00843 2.19877 -0.20423
			CHANNELS 3 Zrotation Yrotation Xrotation
			JOINT Chest2
			{
				OFFSET -0.03080 2.21436 -0.05138
				CHANNELS 3 Zrotation Yrotation Xrotation
				JOINT lowerneck
				{
					OFFSET 0 0 0
					CHANNELS 3 Zrotation Yrotation Xrotation
					JOINT Neck
					{
						OFFSET -0.04063 1.58841 0.30440
						CHANNELS 3 Zrotation Yrotation Xrotation
						JOINT Head
						{
							OFFSET 0.09277 1.59484 -0.39337
							CHANNELS 3 Zrotation Yrotation Xrotation
							End Site
							{
								OFFSET 0.03488 1.66530 -0.17040
							}
						}
					}
				}
				JOINT LeftCollar
				{
					OFFSET 0 0 0
					CHANNELS 3 Zrotation Yrotation Xrotation
					JOINT LeftShoulder
					{
						OFFSET 3.03849 1.31522 0.02556
CHANNELS 3 Zrotation Xrotation Yrotation
						JOINT LeftElbow
						{
OFFSET 0 -5.255370 0.000000
CHANNELS 3 Zrotation Xrotation Yrotation
							JOINT LeftWrist
							{
OFFSET 0 -3.388550 -0.000000
CHANNELS 3 Zrotation Xrotation Yrotation
								JOINT lhand
								{
									OFFSET 0 0 0
CHANNELS 3 Zrotation Xrotation Yrotation
									JOINT LFingers
									{
OFFSET 0 -0.614520 0.000000
CHANNELS 3 Zrotation Xrotation Yrotation
										End Site
										{
OFFSET 0 -0.495440 0.000000
										}
									}
								}
								JOINT LThumb
								{
OFFSET 0 0.000000 0.000000
CHANNELS 3 Zrotation Xrotation Yrotation
									End Site
									{
OFFSET 0 -0.503000 0.503000
									}
								}
							}
						}
					}
				}
				JOINT RightCollar
				{
					OFFSET 0 0 0
					CHANNELS 3 Zrotation Yrotation Xrotation
					JOINT RightShoulder
					{
						OFFSET -3.06926 1.12091 -0.13185
CHANNELS 3 Zrotation Xrotation Yrotation
						JOINT RightElbow
						{
OFFSET 0 -5.381830 0.000000
CHANNELS 3 Zrotation Xrotation Yrotation
							JOINT RightWrist
							{
OFFSET 0 -3.169880 0.000000
CHANNELS 3 Zrotation Xrotation Yrotation
								JOINT rhand
								{
									OFFSET 0 0 0
CHANNELS 3 Zrotation Xrotation Yrotation
									JOINT RFingers
									{
OFFSET 0 -0.637680 0.000000
CHANNELS 3 Zrotation Xrotation Yrotation
										End Site
										{
OFFSET 0 -0.514110 0.000000
										}
									}
								}
								JOINT RThumb
								{
OFFSET 0 0.000000 0.000000
CHANNELS 3 Zrotation Xrotation Yrotation
									End Site
									{
OFFSET 0 -0.521960 0.521960
									}
								}
							}
						}
					}
				}
			}
		}
	}
}
MOTION
Frames: 11
Frame Time: 0.008333333333333333
3.202773 17.156149 -22.367259 23.101531 -2.586736 75.292056 0.000000 0.000000 0.000000 -29.127068 -19.772392 -16.321703 8.108406 16.197546 52.950848 0.303612 8.695141 10.778147 0.027245 -1.060500 -2.915304 0.000000 0.000000 0.000000 -1.555225 -35.077295 -25.543645 -12.579009 -18.623899 67.811708 -0.015374 -3.674200 -5.891619 -1.595281 -7.966041 22.611165 -4.992520 -4.880883 6.754529 -7.082693 -8.490883 -10.002688 -3.485519 -4.035019 -15.459498 -8.020489 -7.489171 -21.131423 12.290522 -9.417254 5.968290 4.142108 -3.861407 6.210860 0.000000 0.000000 0.000000 54.971533 -32.091459 -45.974136 141.239115 -47.308236 102.474059 34.970859 -32.938729 -7.270848 0.000000 0.000000 0.000000 -7.125000 0.000000 0.000000 7.072556 38.738500 1.097434 0.000000 0.000000 0.000000 -51.325260 -31.058574 29.922452 -127.130688 -54.079094 -91.515236 -9.450446 116.985368 11.932125 0.000000 0.000000 0.000000 7.125000 0.000000 0.000000 15.761535 41.536002 1.385353
3.127134 17.332247 -22.515645 23.443023 -1.601583 72.731653 0.000000 0.000000 0.000000 -30.050621 -16.921627 -14.605267 10.508418 17.685122 61.173482 0.351385 9.922891 11.800046 0.000271 -0.072416 -0.198919 0.000000 0.000000 0.000000 -5.838938 -38.550354 -22.508442 -15.833734 -19.577327 77.735179 -0.032643 -2.514991 -5.249686 -2.302638 -9.469703 27.276213 -5.232986 -5.117144 8.118712 -7.254456 -8.859570 -8.816554 -3.358853 -4.180616 -14.883151 -7.008489 -7.378204 -24.191610 12.514266 -9.630577 8.067046 3.972339 -3.738541 7.365013 0.000000 0.000000 0.000000 65.316979 -49.558219 -29.582113 116.765371 -57.085747 82.949445 31.411281 -40.997513 -10.007498 0.000000 0.000000 0.000000 -7.125000 0.000000 0.000000 3.941634 41.629015 0.329425 0.000000 0.000000 0.000000 -57.875550 -48.161020 16.333863 -96.340624 -59.819658 -65.486740 -9.840700 110.624894 6.245681 0.000000 0.000000 0.000000 7.125000 0.000000 0.000000 14.110114 36.002401 3.198509
3.050702 17.495570 -22.622193 23.577940 -0.702058 71.192942 0.000000 0.000000 0.000000 -30.274037 -14.353482 -13.825675 13.176802 18.844143 69.672934 0.416964 11.333274 13.055217 0.010278 0.653269 1.795240 0.000000 0.000000 0.000000 -11.519823 -41.627686 -19.619372 -19.708605 -19.996492 89.147953 -0.027362 0.021441 -3.117050 -2.345759 -9.551901 27.537452 -5.242077 -5.375595 9.777309 -7.209472 -9.219801 -7.580185 -3.086054 -4.326956 -14.427016 -6.093851 -7.328092 -26.871657 12.296335 -9.931343 10.190540 3.673141 -3.694301 8.472871 0.000000 0.000000 0.000000 88.454202 -62.421845 -6.430105 72.345220 -58.753746 44.777646 24.884962 -47.142837 -11.702923 0.000000 0.000000 0.000000 -7.125000 0.000000 0.000000 -2.078276 42.832671 -0.110549 0.000000 0.000000 0.000000 -77.358820 -61.646049 -5.286731 -56.131002 -55.161049 -31.148794 -12.251383 106.727097 -0.330662 0.000000 0.000000 0.000000 7.125000 0.000000 0.000000 11.192603 29.549127 4.289945
2.988195 17.657365 -22.690088 24.388336 -0.052449 71.702363 0.000000 0.000000 0.000000 -30.529598 -13.761897 -14.504086 16.069724 19.624861 78.438913 0.533572 12.024730 14.482124 0.011444 0.680661 1.870661 0.000000 0.000000 0.000000 -18.690637 -44.323394 -17.060756 -23.786261 -19.651403 101.132958 0.011360 2.400572 -0.706132 -2.472355 -9.787444 28.291004 -5.054585 -5.525931 11.250598 -6.758741 -9.528613 -7.787000 -2.473832 -4.414216 -15.561026 -6.417506 -7.028968 -25.333608 11.593110 -9.387917 10.579999 3.593565 -3.567235 8.273390 0.000000 0.000000 0.000000 118.382911 -68.556881 21.358867 39.602872 -47.810869 18.151187 24.210361 -46.035986 -13.409063 0.000000 0.000000 0.000000 -7.125000 0.000000 0.000000 -2.930836 44.608623 -0.028107 0.000000 0.000000 0.000000 -104.533178 -65.673805 -32.039748 -32.214720 -42.702177 -12.891651 -14.491868 108.326991 -4.111185 0.000000 0.000000 0.000000 7.125000 0.000000 0.000000 9.151911 25.720233 4.325187
2.926294 17.772242 -22.703493 24.789495 0.192309 73.920757 0.000000 0.000000 0.000000 -30.239632 -13.811345 -15.207104 18.091599 19.912391 84.412421 0.792896 12.335822 16.918371 0.005143 -0.460201 -1.264513 0.000000 0.000000 0.000000 -25.726198 -45.139300 -14.333943 -26.715959 -18.881995 109.994995 0.096955 5.533729 2.592354 -1.947711 -8.754723 25.032117 -4.583048 -5.654123 11.949135 -5.821144 -9.526792 -7.579463 -1.609635 -4.381482 -15.615160 -7.740974 -7.227337 -25.008611 11.210158 -9.112237 10.054633 3.721128 -3.560834 8.047821 0.000000 0.000000 0.000000 148.388841 -63.682313 45.002486 25.261760 -36.465525 8.447014 24.939268 -37.679820 -15.529839 0.000000 0.000000 0.000000 -7.125000 0.000000 0.000000 -2.598495 47.001270 0.128605 0.000000 0.000000 0.000000 -130.870219 -62.848869 -59.169985 -21.091260 -31.931982 -6.099422 -15.813608 124.704715 -6.105883 0.000000 0.000000 0.000000 7.125000 0.000000 0.000000 8.062773 23.646154 4.191897
2.844072 17.800328 -22.679453 24.618420 -0.360912 78.433870 0.000000 0.000000 0.000000 -29.463755 -15.086158 -15.367742 17.236901 19.815280 81.897209 1.130278 10.694282 19.315453 0.217039 -2.994321 -8.263377 0.000000 0.000000 0.000000 -26.202631 -42.632596 -15.342378 -26.711173 -18.883610 109.980054 0.270885 9.370060 5.432826 -0.833129 -5.822737 16.271032 -4.530226 -5.105906 11.125655 -4.308479 -8.324349 -6.449633 -0.360779 -3.790122 -13.418834 -11.285909 -8.966530 -26.213504 11.876732 -10.063759 7.427203 4.333243 -4.101431 7.652156 0.000000 0.000000 0.000000 162.218435 -52.703272 55.726453 19.652932 -30.221521 5.355706 21.895802 -26.207320 -15.633807 0.000000 0.000000 0.000000 -7.125000 0.000000 0.000000 -5.494391 46.688656 0.229637 0.000000 0.000000 0.000000 -144.772430 -52.898608 -72.281777 -17.588882 -27.627467 -4.356983 -16.422603 141.327872 -6.429760 0.000000 0.000000 0.000000 7.125000 0.000000 0.000000 7.602003 23.291784 4.010744
2.756454 17.720023 -22.675240 25.803936 -1.704169 84.537558 0.000000 0.000000 0.000000 -28.641804 -18.493305 -13.576776 12.334079 18.524113 67.039575 0.798699 12.092756 16.900319 0.005759 -0.250186 -0.687716 0.000000 0.000000 0.000000 -20.793762 -38.854795 -18.114545 -22.314077 -19.867348 96.781192 -0.091115 1.803344 6.694204 -1.784132 -8.399005 23.934075 -3.524806 -5.167405 9.966775 -4.289196 -8.012642 -5.004450 -1.110406 -3.794900 -11.173440 -12.952682 -10.300216 -24.475716 14.210329 -11.231772 0.250509 5.255328 -4.713589 5.462199 0.000000 0.000000 0.000000 166.064851 -38.223201 52.077742 17.794155 -27.892738 4.452593 18.669701 -14.724914 -16.064297 0.000000 0.000000 0.000000 -7.125000 0.000000 0.000000 -8.613653 46.702899 0.364582 0.000000 0.000000 0.000000 -148.173981 -39.497694 -71.654864 -17.779719 -27.874158 -4.445835 -19.692984 165.057213 -5.358703 0.000000 0.000000 0.000000 7.125000 0.000000 0.000000 5.210426 24.292543 2.616572
2.623922 17.521122 -22.663156 27.853693 -4.645070 95.135919 0.000000 0.000000 0.000000 -25.899294 -24.195717 -15.879808 5.686157 14.109796 43.694699 0.127978 14.630341 11.669267 0.478675 4.436775 12.308739 0.000000 0.000000 0.000000 -13.445548 -33.333212 -21.979297 -13.528160 -18.956639 70.751205 0.325694 -11.430970 1.626147 -3.795365 -11.879622 35.311959 -3.208689 -6.429820 5.016681 -4.491998 -9.473063 -5.470394 -1.769336 -4.649303 -8.869656 -13.586597 -9.654282 -18.582540 16.246097 -10.139556 -9.952776 6.469187 -4.504443 1.572848 0.000000 0.000000 0.000000 163.023639 -25.744508 43.692749 17.332022 -27.293359 4.238480 16.716982 -10.718405 -16.642478 0.000000 0.000000 0.000000 -7.125000 0.000000 0.000000 -10.589149 47.032323 0.537133 0.000000 0.000000 0.000000 -147.582557 -26.446558 -64.286776 -18.366375 -28.623686 -4.723433 -21.885742 -179.921398 -3.299614 0.000000 0.000000 0.000000 7.125000 0.000000 0.000000 3.595859 26.421362 1.623196
2.489060 17.332546 -22.639993 29.492387 -8.362268 107.383311 0.000000 0.000000 0.000000 -19.367651 -35.294373 -21.957270 1.606955 7.986225 22.676750 0.036021 11.439795 8.537980 0.001445 -0.050651 -0.139251 0.000000 0.000000 0.000000 -10.620195 -23.107050 -23.545407 -5.346343 -13.755709 42.283108 0.028324 -15.532056 -21.719380 -2.842436 -10.428554 30.382915 -3.705217 -7.853966 -3.428341 -5.094715 -11.037571 -6.417463 -3.114937 -5.591719 -5.151749 -12.067399 -9.231832 -15.345968 18.839900 -9.509153 -16.217604 7.394318 -4.546754 -0.666745 0.000000 0.000000 0.000000 158.269398 -16.774975 33.225641 16.623073 -26.358241 3.918488 13.309089 -10.503711 -18.314742 0.000000 0.000000 0.000000 -7.125000 0.000000 0.000000 -14.301804 48.233321 1.163178 0.000000 0.000000 0.000000 -141.118106 -15.187442 -55.782953 -17.190345 -27.107844 -4.173741 -21.550821 168.834981 -7.291248 0.000000 0.000000 0.000000 7.125000 0.000000 0.000000 3.829907 22.153254 2.107657
2.255478 17.216443 -22.443534 27.103739 -8.969623 111.810786 0.000000 0.000000 0.000000 -10.967844 -43.229303 -21.843927 0.382615 3.972393 10.999043 -1.368070 21.664072 0.407491 0.118179 -2.215640 -6.101958 0.000000 0.000000 0.000000 -13.062636 11.997382 -9.747329 -1.936290 -8.730098 24.955910 -10.098408 -2.769470 -61.841968 -3.099835 -10.849411 31.779663 -5.031395 -7.950049 -4.245074 -5.068837 -11.058919 -6.248514 -2.547955 -5.549210 -4.272085 -11.713542 -8.920429 -14.424152 21.246174 -8.598712 -19.813701 8.382144 -4.323101 -1.803613 0.000000 0.000000 0.000000 150.017418 -10.344294 21.218558 15.975113 -25.486861 3.635297 11.005603 -15.743694 -20.307616 0.000000 0.000000 0.000000 -7.125000 0.000000 0.000000 -17.236866 49.834781 2.110411 0.000000 0.000000 0.000000 -134.347256 -8.108031 -41.044786 -15.632698 -25.020029 -3.489177 -22.379609 159.015520 -9.641963 0.000000 0.000000 0.000000 7.125000 0.000000 0.000000 3.273551 19.577848 1.990516
2.026822 17.116186 -22.405652 27.035694 -8.791230 111.005154 0.000000 0.000000 0.000000 -9.723391 -45.807565 -21.470917 0.538769 4.702858 13.062874 -2.511927 26.788854 -8.313740 0.006432 0.514365 1.413308 0.000000 0.000000 0.000000 -11.413036 28.567542 -1.143105 -1.564058 -7.891878 22.386284 -16.534400 13.620134 -79.877910 -3.997969 -12.157642 36.292089 -5.695045 -8.221611 -1.667200 -4.875844 -11.568657 -5.507503 -1.669110 -5.729747 -4.759641 -12.912346 -9.176385 -13.652883 23.106922 -8.440541 -21.986829 9.369858 -4.341676 -2.362553 0.000000 0.000000 0.000000 139.583249 -6.736627 10.697101 14.780346 -23.839097 3.136635 10.467665 -15.239621 -20.349764 0.000000 0.000000 0.000000 -7.125000 0.000000 0.000000 -17.759707 49.793514 2.159339 0.000000 0.000000 0.000000 -128.690162 -5.223013 -24.167968 -14.219932 -23.048262 -2.913696 -21.995808 154.001555 -9.610892 0.000000 0.000000 0.000000 7.125000 0.000000 0.000000 3.546544 19.640473 2.152231
